# xmcd
#
# Track frame offsets: 
#        150
#        22240
#        52051
#        66131
#        112447
#        172704
#        220677
#
# Disc length: 3244 seconds
#
# Revision: 1
# Processed by: cddbd v1.5.2PL0 Copyright (c) Steve Scherf et al.
# Submitted via: ExactAudioCopyFreeDBPlugin 1.0
#
DISCID=660caa07
DTITLE=Joe Bonamassa - Tour De Force: Shepherd's Bush Empire
DYEAR=2014
DGENRE=Blues
TTITLE0=Lonesome Road Blues
TTITLE1=Stop!
TTITLE2=I Got All You Need
TTITLE3=The Great Flood
TTITLE4=The Ballad Of John Henry
TTITLE5=Asking Around For You
TTITLE6=Further Up On The Road
EXTD=
EXTT0=
EXTT1=
EXTT2=
EXTT3=
EXTT4=
EXTT5=
EXTT6=
PLAYORDER=
